<?xml version="1.0" encoding="UTF-8"?><svg id="a" xmlns="http://www.w3.org/2000/svg" viewBox="0 0 1695 213.9"><defs><style>.b{fill:#96b983;}.c{fill:#111;opacity:.75;}</style></defs><path class="b" d="M74.7,44.4l94.5,167.4h-53.4L47.1,88.2v123.6H0V1.8h158.1v42.6h-83.4Z"/><path class="c" d="M250.2,61.8c50.4,0,75.3,38.4,75.3,78.6v71.4h-36v-15.6c-5.7,6.9-19.8,15.6-39.3,15.6-100.5,0-100.5-150,0-150ZM250.2,175.8c51.9,0,51.6-78,0-78s-52.5,78,0,78Z"/><path class="c" d="M355.5,12.6c10.8,0,18,7.2,18,18s-7.2,18-18,18-18-7.2-18-18,7.2-18,18-18ZM337.5,61.8h36v150h-36V61.8Z"/><path class="c" d="M470.1,97.8h-84.6v-36h138v36l-84.9,78h84.9v36h-138v-36l84.6-78Z"/><path class="c" d="M601.8,61.5c57.6,0,81,46.2,74.1,85.8h-112.5c3.6,18.6,17.4,28.8,38.4,28.8,14.7,0,25.8-5.1,32.4-14.4l35.7,10.2c-11.4,25.2-35.7,40.2-68.1,40.2-45.3,0-75.3-30-75.3-75.3s30-75.3,75.3-75.3ZM637.5,117.3c-5.7-12.9-18-19.8-35.7-19.8s-29.7,7.2-35.4,19.8h71.1Z"/><path class="c" d="M765.6,97.8c-31.2,0-40.5,9-40.5,41.7v72.3h-36v-72.3c0-51.6,23.7-77.7,76.5-77.7v36Z"/><path class="c" d="M1005.3,154.2c0,38.7-36.9,59.7-74.1,59.7s-77.1-22.2-77.1-69.9l45.3-.3c0,20.1,15.9,29.4,30.9,29.4,13.5,0,26.1-7.5,26.1-21,0-38.7-96.9-17.7-96.9-90.9C859.5,20.4,893.7,0,928.5,0s70.8,21,70.8,62.7h-45.6c0-14.1-12-20.7-24-20.7s-22.8,6.3-22.8,18c0,36.3,98.4,16.8,98.4,94.2Z"/><path class="c" d="M1050.3,134.1v-42.3h-33.9v-30h33.9V19.8h36v42h40.5v30h-40.5v42.3c0,32.7,9.3,41.7,40.5,41.7v36c-52.8,0-76.5-26.1-76.5-77.7Z"/><path class="c" d="M1215.3,97.8c-31.2,0-40.5,9-40.5,41.7v72.3h-36v-72.3c0-51.6,23.7-77.7,76.5-77.7v36Z"/><path class="c" d="M1293.9,61.8c50.4,0,75.3,38.4,75.3,78.6v71.4h-36v-15.6c-5.7,6.9-19.8,15.6-39.3,15.6-100.5,0-100.5-150,0-150ZM1293.9,175.8c51.9,0,51.6-78,0-78s-52.5,78,0,78Z"/><path class="c" d="M1496.1,77.4V1.8h36v131.4c0,40.2-24.9,78.6-75.3,78.6-100.5,0-100.5-150,0-150,19.5,0,33.6,8.7,39.3,15.6ZM1456.8,97.8c-52.5,0-52.2,78,0,78s51.9-78,0-78Z"/><path class="c" d="M1619.7,61.8c50.4,0,75.3,38.4,75.3,78.6v71.4h-36v-15.6c-5.7,6.9-19.8,15.6-39.3,15.6-100.5,0-100.5-150,0-150ZM1619.7,175.8c51.9,0,51.6-78,0-78s-52.5,78,0,78Z"/></svg>